<?xml version="1.0" encoding="UTF-8" standalone="no"?>
<!DOCTYPE svg PUBLIC "-//W3C//DTD SVG 1.1//EN" "http://www.w3.org/Graphics/SVG/1.1/DTD/svg11.dtd">
<svg width="100%" height="100%" viewBox="0 0 900 450" version="1.1" xmlns="http://www.w3.org/2000/svg" xmlns:xlink="http://www.w3.org/1999/xlink" xml:space="preserve" xmlns:serif="http://www.serif.com/" style="fill-rule:evenodd;clip-rule:evenodd;stroke-linejoin:round;stroke-miterlimit:2;">
    <g transform="matrix(1,0,0,1,-1082.83,-506.967)">
        <g id="Layered-Logo--Watermark" serif:id="Layered Logo, Watermark" transform="matrix(0.878906,0,0,0.439453,1082.83,506.967)">
            <rect x="0" y="0" width="1024" height="1024" style="fill:none;"/>
            <g transform="matrix(1.13778,0,0,2.27556,-5738.26,-2773.83)">
                <g transform="matrix(137.5,0,0,137.5,5112.78,1430.23)">
                    <path d="M0.717,-0L0.138,-0C0.129,-0 0.12,-0.002 0.112,-0.005C0.104,-0.008 0.098,-0.013 0.092,-0.018C0.086,-0.024 0.082,-0.031 0.079,-0.039C0.075,-0.046 0.074,-0.055 0.074,-0.064L0.074,-0.7L0.201,-0.7L0.201,-0.127L0.717,-0.127L0.717,-0Z" style="fill:white;fill-rule:nonzero;"/>
                </g>
                <g transform="matrix(137.5,0,0,137.5,5214.03,1430.23)">
                    <path d="M0.761,-0L0.634,-0L0.634,-0.172L0.188,-0.172L0.188,-0L0.061,-0L0.061,-0.35C0.061,-0.401 0.069,-0.448 0.087,-0.491C0.104,-0.534 0.129,-0.571 0.16,-0.602C0.191,-0.633 0.228,-0.657 0.271,-0.674C0.314,-0.692 0.36,-0.7 0.411,-0.7L0.697,-0.7C0.706,-0.7 0.714,-0.699 0.722,-0.695C0.729,-0.692 0.736,-0.688 0.742,-0.682C0.748,-0.676 0.753,-0.669 0.756,-0.661C0.759,-0.653 0.761,-0.645 0.761,-0.636L0.761,-0ZM0.188,-0.299L0.634,-0.299L0.634,-0.573L0.411,-0.573C0.407,-0.573 0.399,-0.573 0.386,-0.572C0.373,-0.57 0.359,-0.568 0.343,-0.563C0.326,-0.558 0.309,-0.551 0.291,-0.542C0.272,-0.533 0.256,-0.52 0.24,-0.503C0.225,-0.486 0.212,-0.466 0.202,-0.441C0.192,-0.416 0.188,-0.386 0.188,-0.35L0.188,-0.299Z" style="fill:white;fill-rule:nonzero;"/>
                </g>
                <g transform="matrix(137.5,0,0,137.5,5328.77,1430.23)">
                    <path d="M0.741,-0.466C0.741,-0.437 0.737,-0.411 0.73,-0.388C0.722,-0.365 0.713,-0.345 0.701,-0.328C0.689,-0.31 0.675,-0.296 0.658,-0.283C0.642,-0.271 0.626,-0.261 0.608,-0.253C0.591,-0.245 0.574,-0.239 0.556,-0.235C0.538,-0.232 0.521,-0.23 0.506,-0.23L0.455,-0.23L0.455,-0L0.327,-0L0.327,-0.23L0.276,-0.23C0.26,-0.23 0.244,-0.232 0.226,-0.235C0.208,-0.239 0.191,-0.245 0.173,-0.253C0.156,-0.261 0.139,-0.271 0.123,-0.283C0.107,-0.296 0.093,-0.31 0.081,-0.328C0.069,-0.345 0.059,-0.365 0.052,-0.388C0.044,-0.411 0.041,-0.437 0.041,-0.466L0.041,-0.7L0.167,-0.7L0.167,-0.466C0.167,-0.449 0.17,-0.434 0.175,-0.421C0.181,-0.408 0.188,-0.397 0.197,-0.387C0.207,-0.378 0.218,-0.371 0.232,-0.365C0.245,-0.36 0.26,-0.358 0.277,-0.358L0.506,-0.358C0.518,-0.36 0.53,-0.362 0.543,-0.365C0.556,-0.369 0.567,-0.374 0.578,-0.381C0.588,-0.389 0.597,-0.399 0.604,-0.413C0.61,-0.426 0.614,-0.444 0.614,-0.466L0.614,-0.7L0.741,-0.7L0.741,-0.466Z" style="fill:white;fill-rule:nonzero;"/>
                </g>
                <g transform="matrix(137.5,0,0,137.5,5436.19,1430.23)">
                    <path d="M0.649,-0.286L0.249,-0.286L0.249,-0.414L0.649,-0.414L0.649,-0.286ZM0.707,-0L0.249,-0C0.231,-0 0.212,-0.003 0.191,-0.009C0.17,-0.015 0.151,-0.026 0.133,-0.04C0.115,-0.054 0.101,-0.072 0.089,-0.095C0.077,-0.118 0.071,-0.145 0.071,-0.178L0.071,-0.636C0.071,-0.645 0.072,-0.653 0.076,-0.661C0.079,-0.669 0.083,-0.676 0.089,-0.682C0.095,-0.688 0.102,-0.692 0.109,-0.695C0.117,-0.699 0.126,-0.7 0.135,-0.7L0.707,-0.7L0.707,-0.573L0.198,-0.573L0.198,-0.178C0.198,-0.162 0.202,-0.149 0.211,-0.14C0.22,-0.131 0.233,-0.127 0.25,-0.127L0.707,-0.127L0.707,-0Z" style="fill:white;fill-rule:nonzero;"/>
                </g>
                <g transform="matrix(137.5,0,0,137.5,5540.05,1430.23)">
                    <path d="M0.773,-0.465C0.773,-0.436 0.77,-0.41 0.763,-0.387C0.756,-0.364 0.746,-0.344 0.734,-0.327C0.721,-0.309 0.707,-0.295 0.691,-0.282C0.675,-0.27 0.659,-0.26 0.641,-0.252C0.624,-0.244 0.606,-0.238 0.589,-0.234C0.571,-0.231 0.554,-0.229 0.539,-0.229L0.804,-0L0.607,-0L0.343,-0.229L0.251,-0.229L0.251,-0.356L0.539,-0.356C0.555,-0.357 0.569,-0.361 0.582,-0.366C0.595,-0.371 0.607,-0.379 0.616,-0.388C0.626,-0.397 0.633,-0.408 0.639,-0.421C0.644,-0.434 0.646,-0.448 0.646,-0.465L0.646,-0.545C0.646,-0.552 0.646,-0.558 0.644,-0.561C0.642,-0.565 0.64,-0.568 0.637,-0.57C0.634,-0.571 0.631,-0.572 0.628,-0.573C0.625,-0.573 0.622,-0.573 0.62,-0.573L0.201,-0.573L0.201,-0L0.074,-0L0.074,-0.636C0.074,-0.645 0.075,-0.653 0.079,-0.661C0.082,-0.669 0.086,-0.676 0.092,-0.682C0.098,-0.688 0.104,-0.692 0.112,-0.695C0.12,-0.699 0.129,-0.7 0.138,-0.7L0.62,-0.7C0.648,-0.7 0.672,-0.695 0.691,-0.685C0.711,-0.675 0.727,-0.662 0.739,-0.646C0.751,-0.631 0.76,-0.614 0.765,-0.596C0.771,-0.578 0.773,-0.562 0.773,-0.546L0.773,-0.465Z" style="fill:white;fill-rule:nonzero;"/>
                </g>
                <g transform="matrix(137.5,0,0,137.5,5653.79,1430.23)">
                    <path d="M0.649,-0.286L0.249,-0.286L0.249,-0.414L0.649,-0.414L0.649,-0.286ZM0.707,-0L0.249,-0C0.231,-0 0.212,-0.003 0.191,-0.009C0.17,-0.015 0.151,-0.026 0.133,-0.04C0.115,-0.054 0.101,-0.072 0.089,-0.095C0.077,-0.118 0.071,-0.145 0.071,-0.178L0.071,-0.636C0.071,-0.645 0.072,-0.653 0.076,-0.661C0.079,-0.669 0.083,-0.676 0.089,-0.682C0.095,-0.688 0.102,-0.692 0.109,-0.695C0.117,-0.699 0.126,-0.7 0.135,-0.7L0.707,-0.7L0.707,-0.573L0.198,-0.573L0.198,-0.178C0.198,-0.162 0.202,-0.149 0.211,-0.14C0.22,-0.131 0.233,-0.127 0.25,-0.127L0.707,-0.127L0.707,-0Z" style="fill:white;fill-rule:nonzero;"/>
                </g>
                <g transform="matrix(137.5,0,0,137.5,5757.65,1430.23)">
                    <path d="M0.772,-0.293C0.772,-0.25 0.765,-0.211 0.75,-0.175C0.735,-0.139 0.715,-0.109 0.689,-0.083C0.663,-0.057 0.632,-0.037 0.596,-0.022C0.56,-0.007 0.521,-0 0.479,-0L0.137,-0C0.128,-0 0.119,-0.002 0.111,-0.005C0.104,-0.008 0.097,-0.013 0.091,-0.018C0.085,-0.024 0.081,-0.031 0.078,-0.039C0.074,-0.046 0.073,-0.055 0.073,-0.064L0.073,-0.636C0.073,-0.645 0.074,-0.653 0.078,-0.661C0.081,-0.669 0.085,-0.676 0.091,-0.682C0.097,-0.688 0.104,-0.692 0.111,-0.695C0.119,-0.699 0.128,-0.7 0.137,-0.7L0.479,-0.7C0.521,-0.7 0.56,-0.693 0.596,-0.678C0.632,-0.664 0.663,-0.643 0.689,-0.617C0.715,-0.592 0.735,-0.561 0.75,-0.525C0.765,-0.489 0.772,-0.45 0.772,-0.407L0.772,-0.293ZM0.646,-0.407C0.646,-0.432 0.642,-0.455 0.634,-0.475C0.626,-0.496 0.614,-0.513 0.6,-0.528C0.585,-0.542 0.567,-0.553 0.547,-0.561C0.527,-0.569 0.504,-0.573 0.479,-0.573L0.2,-0.573L0.2,-0.127L0.479,-0.127C0.504,-0.127 0.527,-0.131 0.547,-0.139C0.567,-0.147 0.585,-0.158 0.6,-0.173C0.614,-0.187 0.626,-0.205 0.634,-0.225C0.642,-0.245 0.646,-0.268 0.646,-0.293L0.646,-0.407Z" style="fill:white;fill-rule:nonzero;"/>
                </g>
            </g>
            <g transform="matrix(0.972909,0,0,1.94582,-4832.91,-2027.65)">
                <g transform="matrix(141.667,0,0,141.667,5244.03,1430.23)">
                    <path d="M0.968,-0.7L0.851,-0.044C0.848,-0.031 0.842,-0.02 0.833,-0.01C0.824,-0.001 0.813,0.005 0.8,0.008C0.786,0.01 0.774,0.009 0.762,0.003C0.75,-0.002 0.741,-0.01 0.734,-0.021L0.501,-0.403L0.269,-0.021C0.263,-0.012 0.255,-0.004 0.246,0.001C0.236,0.006 0.226,0.009 0.215,0.009C0.2,0.009 0.186,0.004 0.174,-0.006C0.163,-0.016 0.155,-0.028 0.153,-0.044L0.035,-0.7L0.164,-0.7L0.248,-0.238L0.448,-0.557C0.453,-0.567 0.461,-0.574 0.47,-0.579C0.48,-0.584 0.49,-0.587 0.501,-0.587C0.513,-0.587 0.523,-0.584 0.532,-0.579C0.542,-0.574 0.549,-0.567 0.556,-0.557L0.755,-0.238L0.839,-0.7L0.968,-0.7Z" style="fill:white;fill-rule:nonzero;stroke:white;stroke-width:0.03px;"/>
                </g>
                <g transform="matrix(141.667,0,0,141.667,5385.29,1430.23)">
                    <path d="M0.809,-0.283C0.809,-0.241 0.801,-0.201 0.787,-0.166C0.772,-0.13 0.752,-0.099 0.726,-0.073C0.7,-0.047 0.669,-0.026 0.633,-0.012C0.597,0.003 0.559,0.01 0.517,0.01L0.345,0.01C0.303,0.01 0.264,0.003 0.228,-0.012C0.192,-0.026 0.161,-0.047 0.135,-0.073C0.109,-0.099 0.089,-0.13 0.074,-0.166C0.059,-0.201 0.052,-0.241 0.052,-0.283L0.052,-0.417C0.052,-0.459 0.059,-0.498 0.074,-0.534C0.089,-0.57 0.109,-0.601 0.135,-0.627C0.161,-0.653 0.192,-0.673 0.228,-0.688C0.264,-0.703 0.303,-0.71 0.345,-0.71L0.517,-0.71C0.559,-0.71 0.597,-0.703 0.633,-0.688C0.669,-0.673 0.7,-0.653 0.726,-0.627C0.752,-0.601 0.772,-0.57 0.787,-0.534C0.801,-0.498 0.809,-0.459 0.809,-0.417L0.809,-0.283ZM0.682,-0.417C0.682,-0.442 0.678,-0.465 0.67,-0.485C0.662,-0.505 0.65,-0.523 0.636,-0.537C0.622,-0.552 0.604,-0.563 0.584,-0.571C0.563,-0.579 0.541,-0.583 0.517,-0.583L0.345,-0.583C0.32,-0.583 0.297,-0.579 0.277,-0.571C0.257,-0.563 0.239,-0.552 0.225,-0.537C0.21,-0.523 0.199,-0.505 0.191,-0.485C0.183,-0.465 0.179,-0.442 0.179,-0.417L0.179,-0.283C0.179,-0.258 0.183,-0.235 0.191,-0.215C0.199,-0.195 0.21,-0.177 0.225,-0.163C0.239,-0.148 0.257,-0.137 0.277,-0.129C0.297,-0.121 0.32,-0.117 0.345,-0.117L0.516,-0.117C0.54,-0.117 0.563,-0.121 0.583,-0.129C0.604,-0.137 0.621,-0.148 0.636,-0.163C0.65,-0.177 0.662,-0.195 0.67,-0.215C0.678,-0.235 0.682,-0.258 0.682,-0.283L0.682,-0.417Z" style="fill:white;fill-rule:nonzero;stroke:white;stroke-width:0.03px;"/>
                </g>
                <g transform="matrix(141.667,0,0,141.667,5507.17,1430.23)">
                    <path d="M0.773,-0.465C0.773,-0.436 0.77,-0.41 0.763,-0.387C0.756,-0.364 0.746,-0.344 0.734,-0.327C0.721,-0.309 0.707,-0.295 0.691,-0.282C0.675,-0.27 0.659,-0.26 0.641,-0.252C0.624,-0.244 0.606,-0.238 0.589,-0.234C0.571,-0.231 0.554,-0.229 0.539,-0.229L0.804,-0L0.607,-0L0.343,-0.229L0.251,-0.229L0.251,-0.356L0.539,-0.356C0.555,-0.357 0.569,-0.361 0.582,-0.366C0.595,-0.371 0.607,-0.379 0.616,-0.388C0.626,-0.397 0.633,-0.408 0.639,-0.421C0.644,-0.434 0.646,-0.448 0.646,-0.465L0.646,-0.545C0.646,-0.552 0.646,-0.558 0.644,-0.561C0.642,-0.565 0.64,-0.568 0.637,-0.57C0.634,-0.571 0.631,-0.572 0.628,-0.573C0.625,-0.573 0.622,-0.573 0.62,-0.573L0.201,-0.573L0.201,-0L0.074,-0L0.074,-0.636C0.074,-0.645 0.075,-0.653 0.079,-0.661C0.082,-0.669 0.086,-0.676 0.092,-0.682C0.098,-0.688 0.104,-0.692 0.112,-0.695C0.12,-0.699 0.129,-0.7 0.138,-0.7L0.62,-0.7C0.648,-0.7 0.672,-0.695 0.691,-0.685C0.711,-0.675 0.727,-0.662 0.739,-0.646C0.751,-0.631 0.76,-0.614 0.765,-0.596C0.771,-0.578 0.773,-0.562 0.773,-0.546L0.773,-0.465Z" style="fill:white;fill-rule:nonzero;stroke:white;stroke-width:0.03px;"/>
                </g>
                <g transform="matrix(141.667,0,0,141.667,5624.35,1430.23)">
                    <path d="M0.808,-0L0.627,-0L0.342,-0.286L0.252,-0.286L0.252,-0.414L0.342,-0.414L0.627,-0.7L0.808,-0.7L0.448,-0.35L0.808,-0ZM0.202,-0L0.075,-0L0.075,-0.7L0.202,-0.7L0.202,-0Z" style="fill:white;fill-rule:nonzero;stroke:white;stroke-width:0.03px;"/>
                </g>
            </g>
            <g id="Rainbow-Stripes" serif:id="Rainbow Stripes" transform="matrix(0.721062,-2.67524e-17,1.61103e-17,-2,234.691,1851.38)">
                <g>
                    <g transform="matrix(0.288641,1.64176e-17,6.58307e-17,1.24419,-799.18,-1287)">
                        <rect x="5325.72" y="1472.51" width="792.674" height="20.118" style="fill:rgb(43,116,136);"/>
                    </g>
                    <g transform="matrix(0.288641,1.64176e-17,6.58307e-17,1.24419,-799.18,-1260.83)">
                        <rect x="5325.72" y="1472.51" width="792.674" height="20.118" style="fill:rgb(117,140,52);"/>
                    </g>
                    <g transform="matrix(0.288641,1.64176e-17,6.58307e-17,1.24419,-799.18,-1234.66)">
                        <rect x="5325.72" y="1472.51" width="792.674" height="20.118" style="fill:rgb(251,172,62);"/>
                    </g>
                    <g transform="matrix(0.288641,1.64176e-17,6.58307e-17,1.24419,-799.18,-1208.49)">
                        <rect x="5325.72" y="1472.51" width="792.674" height="20.118" style="fill:rgb(198,70,22);"/>
                    </g>
                </g>
            </g>
            <g id="Rainbow-Stripes1" serif:id="Rainbow Stripes" transform="matrix(0.721062,-2.67524e-17,1.61103e-17,-2,-388.045,1853.65)">
                <g>
                    <g transform="matrix(0.289846,1.62951e-17,6.53395e-17,1.24419,-878.374,-1286.43)">
                        <rect x="5325.72" y="1472.51" width="792.674" height="20.118" style="fill:rgb(43,116,136);"/>
                    </g>
                    <g transform="matrix(0.289846,1.62951e-17,6.53395e-17,1.24419,-878.374,-1260.26)">
                        <rect x="5325.72" y="1472.51" width="792.674" height="20.118" style="fill:rgb(117,140,52);"/>
                    </g>
                    <g transform="matrix(0.289846,1.62951e-17,6.53395e-17,1.24419,-878.374,-1234.09)">
                        <rect x="5325.72" y="1472.51" width="792.674" height="20.118" style="fill:rgb(251,172,62);"/>
                    </g>
                    <g transform="matrix(0.288641,1.64176e-17,6.58307e-17,1.24419,-871.003,-1207.92)">
                        <rect x="5325.72" y="1472.51" width="792.674" height="20.118" style="fill:rgb(198,70,22);"/>
                    </g>
                </g>
            </g>
        </g>
    </g>
</svg>
